<svg width="20" height="20" viewBox="0 0 30 30" fill="none" xmlns="http://www.w3.org/2000/svg">
<path d="M24.1666 9.21664C24.1666 14.5825 20 15.4158 20 20.4166C20 22.9983 17.3975 23.2158 15.4166 23.2158C13.7058 23.2158 9.92831 22.5666 9.92831 20.415C9.92831 15.4166 5.83331 14.5833 5.83331 9.21664C5.83331 4.1908 10.2375 0.116638 15.0691 0.116638C19.9025 0.116638 24.1666 4.1908 24.1666 9.21664Z" fill="#FFD983"/>
<path d="M18.4725 27.0834C18.4725 27.7734 16.6109 29.1667 15 29.1667C13.3892 29.1667 11.5275 27.7734 11.5275 27.0834C11.5275 26.3934 13.3884 26.6667 15 26.6667C16.6109 26.6667 18.4725 26.3934 18.4725 27.0834Z" fill="#CCD6DD"/>
<path d="M18.9225 8.57753C18.8452 8.50007 18.7533 8.43862 18.6522 8.3967C18.5511 8.35477 18.4428 8.33319 18.3333 8.33319C18.2239 8.33319 18.1155 8.35477 18.0144 8.3967C17.9133 8.43862 17.8215 8.50007 17.7441 8.57753L15 11.3217L12.2558 8.57753C12.1784 8.50015 12.0866 8.43878 11.9855 8.39691C11.8844 8.35504 11.7761 8.33348 11.6666 8.33348C11.5572 8.33348 11.4489 8.35504 11.3478 8.39691C11.2467 8.43878 11.1548 8.50015 11.0775 8.57753C11.0001 8.6549 10.9387 8.74675 10.8969 8.84784C10.855 8.94893 10.8334 9.05727 10.8334 9.16669C10.8334 9.27611 10.855 9.38446 10.8969 9.48555C10.9387 9.58664 11.0001 9.67849 11.0775 9.75586L14.1666 12.845V21.6667C14.1666 21.8877 14.2544 22.0997 14.4107 22.2559C14.567 22.4122 14.779 22.5 15 22.5C15.221 22.5 15.433 22.4122 15.5892 22.2559C15.7455 22.0997 15.8333 21.8877 15.8333 21.6667V12.845L18.9225 9.75586C18.9999 9.67854 19.0614 9.5867 19.1033 9.4856C19.1452 9.38451 19.1668 9.27614 19.1668 9.16669C19.1668 9.05725 19.1452 8.94888 19.1033 8.84778C19.0614 8.74669 18.9999 8.65485 18.9225 8.57753Z" fill="#FFCC4D"/>
<path d="M20 25.8333C20 26.2753 19.8244 26.6993 19.5118 27.0118C19.1993 27.3244 18.7754 27.5 18.3333 27.5H11.6667C11.2246 27.5 10.8007 27.3244 10.4882 27.0118C10.1756 26.6993 10 26.2753 10 25.8333V20.8333H20V25.8333Z" fill="#99AAB5"/>
<path d="M9.99919 26.6667C9.79051 26.6659 9.58972 26.5869 9.4365 26.4452C9.28329 26.3035 9.18881 26.1095 9.17174 25.9015C9.15467 25.6935 9.21625 25.4867 9.34432 25.322C9.47238 25.1572 9.6576 25.0465 9.86336 25.0117L19.8634 23.345C19.9713 23.3264 20.0819 23.3295 20.1887 23.3539C20.2955 23.3784 20.3964 23.4238 20.4855 23.4875C20.5746 23.5512 20.6503 23.6319 20.708 23.7251C20.7657 23.8182 20.8043 23.9218 20.8217 24.03C20.8397 24.1379 20.8363 24.2483 20.8116 24.3549C20.7869 24.4615 20.7414 24.5622 20.6778 24.6512C20.6142 24.7402 20.5337 24.8158 20.4408 24.8736C20.348 24.9315 20.2446 24.9705 20.1367 24.9884L10.1367 26.655C10.0913 26.663 10.0453 26.6669 9.99919 26.6667ZM9.99919 23.3334C9.79051 23.3326 9.58972 23.2535 9.4365 23.1119C9.28329 22.9702 9.18881 22.7762 9.17174 22.5682C9.15467 22.3602 9.21625 22.1534 9.34432 21.9886C9.47238 21.8239 9.6576 21.7131 9.86336 21.6784L19.8634 20.0117C19.9713 19.9932 20.0819 19.9963 20.1886 20.0208C20.2954 20.0453 20.3962 20.0907 20.4853 20.1544C20.5744 20.2181 20.65 20.2988 20.7078 20.3919C20.7655 20.485 20.8042 20.5886 20.8217 20.6967C20.8397 20.8046 20.8363 20.915 20.8116 21.0216C20.7869 21.1282 20.7414 21.2288 20.6778 21.3178C20.6142 21.4068 20.5337 21.4824 20.4408 21.5403C20.348 21.5981 20.2446 21.6371 20.1367 21.655L10.1367 23.3217C10.0913 23.3297 10.0453 23.3336 9.99919 23.3334Z" fill="#CCD6DD"/>
</svg>
