<svg width="380" height="188" viewBox="0 0 380 188" fill="none" xmlns="http://www.w3.org/2000/svg">
<rect x="76.5" y="74.5" width="43" height="36" rx="4.5" stroke="#86C500" stroke-width="3"/>
<rect x="138.5" y="74.5" width="43" height="36" rx="4.5" stroke="#86C500" stroke-width="3"/>
<rect x="200.5" y="74.5" width="43" height="36" rx="4.5" stroke="#86C500" stroke-width="3"/>
<rect x="262.5" y="74.5" width="43" height="36" rx="4.5" stroke="#86C500" stroke-width="3"/>
<path d="M96.0156 83.8008V88.9219C96.5156 88.625 97.0195 88.4062 97.5273 88.2656C98.043 88.1172 98.5625 88.043 99.0859 88.043C99.9141 88.043 100.652 88.1836 101.301 88.4648C101.949 88.7461 102.484 89.1914 102.906 89.8008C103.336 90.4023 103.551 91.1641 103.551 92.0859V96.5977C104.16 96.5977 104.559 96.6562 104.746 96.7734C105.121 97.0156 105.309 97.3594 105.309 97.8047C105.309 98.1562 105.188 98.4453 104.945 98.6719C104.703 98.8906 104.293 99 103.715 99H100.973C100.402 99 99.9922 98.8906 99.7422 98.6719C99.5 98.4453 99.3789 98.1523 99.3789 97.793C99.3789 97.3555 99.5664 97.0156 99.9414 96.7734C100.137 96.6484 100.535 96.5898 101.137 96.5977V92.25C101.137 91.6328 100.996 91.1992 100.715 90.9492C100.348 90.6133 99.8047 90.4453 99.0859 90.4453C98.5547 90.4453 98.082 90.5508 97.668 90.7617C97.2617 90.9648 96.7109 91.4102 96.0156 92.0977V96.5977C96.6328 96.5977 97.0312 96.6562 97.2109 96.7734C97.5938 97.0156 97.7852 97.3594 97.7852 97.8047C97.7852 98.1562 97.6602 98.4453 97.4102 98.6719C97.168 98.8906 96.7578 99 96.1797 99H93.4492C92.8711 99 92.457 98.8906 92.207 98.6719C91.9648 98.4453 91.8438 98.1523 91.8438 97.793C91.8438 97.3555 92.0352 97.0156 92.418 96.7734C92.6055 96.6484 93.0039 96.5898 93.6133 96.5977V86.2031H93.2031C92.625 86.2031 92.2109 86.0938 91.9609 85.875C91.7188 85.6484 91.5977 85.3555 91.5977 84.9961C91.5977 84.6445 91.7188 84.3594 91.9609 84.1406C92.2109 83.9141 92.625 83.8008 93.2031 83.8008H96.0156Z" fill="black"/>
<path d="M161.914 83.8008V86.3438H159.043V83.8008H161.914ZM160.93 90.7617H156.031C155.453 90.7617 155.039 90.6523 154.789 90.4336C154.547 90.207 154.426 89.9141 154.426 89.5547C154.426 89.2031 154.547 88.918 154.789 88.6992C155.039 88.4727 155.453 88.3594 156.031 88.3594H163.332V99.5039C163.332 100.348 163.152 101.082 162.793 101.707C162.441 102.34 161.898 102.883 161.164 103.336C160.43 103.789 159.602 104.016 158.68 104.016H155.961C155.383 104.016 154.969 103.902 154.719 103.676C154.477 103.457 154.355 103.172 154.355 102.82C154.355 102.461 154.477 102.168 154.719 101.941C154.969 101.723 155.383 101.613 155.961 101.613H158.609C159.344 101.613 159.914 101.414 160.32 101.016C160.727 100.617 160.93 100.113 160.93 99.5039V90.7617Z" fill="black"/>
<path d="M220.52 95.0039V99H217.707C217.129 99 216.715 98.8906 216.465 98.6719C216.223 98.4453 216.102 98.1523 216.102 97.793C216.102 97.4414 216.227 97.1562 216.477 96.9375C216.727 96.7109 217.137 96.5977 217.707 96.5977H218.117V86.2031H217.707C217.129 86.2031 216.715 86.0938 216.465 85.875C216.223 85.6484 216.102 85.3555 216.102 84.9961C216.102 84.6445 216.223 84.3594 216.465 84.1406C216.715 83.9141 217.129 83.8008 217.707 83.8008H220.52V91.8984L222.395 90.3867C222.199 90.0508 222.102 89.7773 222.102 89.5664C222.102 89.207 222.223 88.918 222.465 88.6992C222.707 88.4727 223.117 88.3594 223.695 88.3594H226.438C227.016 88.3594 227.426 88.4727 227.668 88.6992C227.918 88.918 228.043 89.207 228.043 89.5664C228.043 89.918 227.918 90.207 227.668 90.4336C227.426 90.6523 227.016 90.7617 226.438 90.7617H225.77L222.852 93.1289L226.777 96.5977H227.48C228.059 96.5977 228.469 96.7109 228.711 96.9375C228.961 97.1562 229.086 97.4453 229.086 97.8047C229.086 98.1562 228.961 98.4453 228.711 98.6719C228.469 98.8906 228.059 99 227.48 99H224.715C224.137 99 223.723 98.8906 223.473 98.6719C223.23 98.4453 223.109 98.1523 223.109 97.793C223.109 97.4883 223.242 97.1875 223.508 96.8906L220.965 94.6406L220.52 95.0039Z" fill="black"/>
<path d="M286.695 83.8008V96.5977H289.578C290.156 96.5977 290.566 96.7109 290.809 96.9375C291.059 97.1562 291.184 97.4453 291.184 97.8047C291.184 98.1562 291.059 98.4453 290.809 98.6719C290.566 98.8906 290.156 99 289.578 99H281.41C280.832 99 280.418 98.8906 280.168 98.6719C279.926 98.4453 279.805 98.1523 279.805 97.793C279.805 97.4414 279.926 97.1562 280.168 96.9375C280.418 96.7109 280.832 96.5977 281.41 96.5977H284.293V86.2031H282.359C281.789 86.2031 281.379 86.0938 281.129 85.875C280.879 85.6484 280.754 85.3555 280.754 84.9961C280.754 84.6445 280.875 84.3594 281.117 84.1406C281.367 83.9141 281.781 83.8008 282.359 83.8008H286.695Z" fill="black"/>
<path d="M0.93934 91.9393C0.353553 92.5251 0.353553 93.4749 0.93934 94.0607L10.4853 103.607C11.0711 104.192 12.0208 104.192 12.6066 103.607C13.1924 103.021 13.1924 102.071 12.6066 101.485L4.12132 93L12.6066 84.5147C13.1924 83.9289 13.1924 82.9792 12.6066 82.3934C12.0208 81.8076 11.0711 81.8076 10.4853 82.3934L0.93934 91.9393ZM64 91.5L2 91.5V94.5L64 94.5V91.5Z" fill="black"/>
<path d="M379.06 94.0608C379.646 93.475 379.646 92.5252 379.06 91.9394L369.514 82.3935C368.928 81.8077 367.978 81.8077 367.393 82.3935C366.807 82.9793 366.807 83.929 367.393 84.5148L375.878 93.0001L367.393 101.485C366.807 102.071 366.807 103.021 367.393 103.607C367.978 104.192 368.928 104.192 369.514 103.607L379.06 94.0608ZM315.999 94.5001H377.999V91.5001H315.999V94.5001Z" fill="black"/>
<path d="M160.939 187.061C161.525 187.646 162.475 187.646 163.061 187.061L172.607 177.515C173.192 176.929 173.192 175.979 172.607 175.393C172.021 174.808 171.071 174.808 170.485 175.393L162 183.879L153.515 175.393C152.929 174.808 151.979 174.808 151.393 175.393C150.808 175.979 150.808 176.929 151.393 177.515L160.939 187.061ZM160.5 124L160.5 186L163.5 186L163.5 124L160.5 124Z" fill="black"/>
<path d="M222.061 0.93934C221.475 0.353553 220.525 0.353553 219.939 0.93934L210.393 10.4853C209.808 11.0711 209.808 12.0208 210.393 12.6066C210.979 13.1924 211.929 13.1924 212.515 12.6066L221 4.12132L229.485 12.6066C230.071 13.1924 231.021 13.1924 231.607 12.6066C232.192 12.0208 232.192 11.0711 231.607 10.4853L222.061 0.93934ZM222.5 64V2H219.5V64H222.5Z" fill="black"/>
</svg>
<svg width="627" height="423" viewBox="0 0 627 423" fill="none" xmlns="http://www.w3.org/2000/svg">
<rect x="2" y="102" width="112" height="224" rx="4" stroke="#86C500" stroke-width="4"/>
<rect x="372" y="2" width="251" height="82" rx="4" stroke="#86C500" stroke-width="4"/>
<rect x="372" y="172" width="251" height="82" rx="4" stroke="#86C500" stroke-width="4"/>
<path d="M25.4609 195.943V201.998H26.1836C26.6654 201.998 27.0072 202.092 27.209 202.281C27.4173 202.464 27.5215 202.704 27.5215 203.004C27.5215 203.297 27.4173 203.538 27.209 203.727C27.0072 203.909 26.6654 204 26.1836 204H23.5566C23.0749 204 22.7298 203.909 22.5215 203.727C22.3197 203.538 22.2188 203.294 22.2188 202.994C22.2188 202.708 22.3197 202.47 22.5215 202.281C22.7233 202.092 23.0358 201.998 23.459 201.998V194.166H23.1465C22.6647 194.166 22.3197 194.075 22.1113 193.893C21.9095 193.704 21.8086 193.46 21.8086 193.16C21.8086 192.861 21.9095 192.62 22.1113 192.438C22.3197 192.249 22.6647 192.154 23.1465 192.154L25.4609 192.164L30.5781 200.191V194.166H29.8555C29.3737 194.166 29.0286 194.075 28.8203 193.893C28.6185 193.704 28.5176 193.46 28.5176 193.16C28.5176 192.861 28.6185 192.62 28.8203 192.438C29.0286 192.249 29.3737 192.154 29.8555 192.154L32.4824 192.164C32.9642 192.164 33.306 192.255 33.5078 192.438C33.7161 192.62 33.8203 192.861 33.8203 193.16C33.8203 193.453 33.7194 193.694 33.5176 193.883C33.3158 194.072 33.0065 194.166 32.5898 194.166V204H30.6074L25.4609 195.943ZM45.1777 199.732C45.1777 200.501 44.9629 201.246 44.5332 201.969C44.11 202.685 43.4753 203.258 42.6289 203.688C41.7891 204.111 40.9102 204.322 39.9922 204.322C39.0807 204.322 38.2083 204.114 37.375 203.697C36.5417 203.274 35.9069 202.701 35.4707 201.979C35.0345 201.256 34.8164 200.501 34.8164 199.713C34.8164 198.912 35.0378 198.128 35.4805 197.359C35.9232 196.585 36.5579 195.976 37.3848 195.533C38.2181 195.09 39.0872 194.869 39.9922 194.869C40.9036 194.869 41.7793 195.097 42.6191 195.553C43.4655 196.002 44.1035 196.611 44.5332 197.379C44.9629 198.141 45.1777 198.925 45.1777 199.732ZM43.1758 199.742C43.1758 199.098 42.9447 198.505 42.4824 197.965C41.8509 197.236 41.0208 196.871 39.9922 196.871C39.0872 196.871 38.332 197.161 37.7266 197.74C37.1211 198.32 36.8184 198.99 36.8184 199.752C36.8184 200.377 37.1243 200.963 37.7363 201.51C38.3483 202.05 39.1003 202.32 39.9922 202.32C40.8906 202.32 41.6458 202.05 42.2578 201.51C42.8698 200.963 43.1758 200.374 43.1758 199.742ZM51.5742 195.133V196.383C52.4141 195.777 53.0749 195.374 53.5566 195.172C54.0449 194.97 54.5007 194.869 54.9238 194.869C55.5749 194.869 56.2064 195.11 56.8184 195.592C57.235 195.917 57.4434 196.249 57.4434 196.588C57.4434 196.874 57.3424 197.118 57.1406 197.32C56.9453 197.516 56.7077 197.613 56.4277 197.613C56.1803 197.613 55.9199 197.49 55.6465 197.242C55.373 196.995 55.1289 196.871 54.9141 196.871C54.6341 196.871 54.2142 197.047 53.6543 197.398C53.1009 197.75 52.4076 198.277 51.5742 198.98V201.998H54.4258C54.9076 201.998 55.2493 202.092 55.4512 202.281C55.6595 202.464 55.7637 202.704 55.7637 203.004C55.7637 203.297 55.6595 203.538 55.4512 203.727C55.2493 203.909 54.9076 204 54.4258 204H48.3809C47.8991 204 47.554 203.909 47.3457 203.727C47.1439 203.538 47.043 203.294 47.043 202.994C47.043 202.701 47.1439 202.464 47.3457 202.281C47.554 202.092 47.8991 201.998 48.3809 201.998H49.5723V197.135H48.8496C48.3678 197.135 48.0228 197.044 47.8145 196.861C47.6126 196.673 47.5117 196.428 47.5117 196.129C47.5117 195.836 47.6126 195.598 47.8145 195.416C48.0228 195.227 48.3678 195.133 48.8496 195.133H51.5742ZM60.9102 195.133V195.699C61.2357 195.38 61.5286 195.162 61.7891 195.045C62.056 194.921 62.362 194.859 62.707 194.859C63 194.859 63.2897 194.931 63.5762 195.074C63.8626 195.217 64.1426 195.432 64.416 195.719C64.7611 195.432 65.1094 195.221 65.4609 195.084C65.819 194.941 66.1836 194.869 66.5547 194.869C67.2969 194.869 67.8991 195.068 68.3613 195.465C68.9733 195.986 69.2793 196.669 69.2793 197.516V201.998C69.696 201.998 70.0052 202.092 70.207 202.281C70.4089 202.47 70.5098 202.711 70.5098 203.004C70.5098 203.297 70.4089 203.538 70.207 203.727C70.0052 203.909 69.6634 204 69.1816 204H67.2773V197.682C67.2773 197.376 67.222 197.164 67.1113 197.047C67.0007 196.93 66.8314 196.871 66.6035 196.871C66.3822 196.871 66.1771 196.93 65.9883 197.047C65.7474 197.21 65.4544 197.516 65.1094 197.965V201.998C65.526 201.998 65.8353 202.092 66.0371 202.281C66.2389 202.47 66.3398 202.711 66.3398 203.004C66.3398 203.297 66.2389 203.538 66.0371 203.727C65.8353 203.909 65.4935 204 65.0117 204H63.1074V197.682C63.1074 197.382 63.0488 197.174 62.9316 197.057C62.821 196.933 62.6517 196.871 62.4238 196.871C62.1895 196.871 61.9583 196.946 61.7305 197.096C61.5026 197.239 61.2292 197.529 60.9102 197.965V201.998C61.3268 201.998 61.6361 202.092 61.8379 202.281C62.0462 202.47 62.1504 202.711 62.1504 203.004C62.1504 203.297 62.0462 203.538 61.8379 203.727C61.6361 203.909 61.2943 204 60.8125 204H59.0059C58.5241 204 58.1823 203.909 57.9805 203.727C57.7721 203.538 57.668 203.294 57.668 202.994C57.668 202.701 57.7689 202.464 57.9707 202.281C58.1725 202.092 58.485 201.998 58.9082 201.998V197.135C58.485 197.135 58.1725 197.04 57.9707 196.852C57.7689 196.663 57.668 196.422 57.668 196.129C57.668 195.836 57.7721 195.598 57.9805 195.416C58.1823 195.227 58.5241 195.133 59.0059 195.133H60.9102ZM77.8145 204V203.531C77.3132 203.798 76.7598 203.997 76.1543 204.127C75.5488 204.264 74.9987 204.332 74.5039 204.332C73.4297 204.332 72.5573 204.049 71.8867 203.482C71.2161 202.91 70.8809 202.278 70.8809 201.588C70.8809 200.748 71.3073 199.97 72.1602 199.254C73.0195 198.531 74.2044 198.17 75.7148 198.17C76.3203 198.17 77.0202 198.235 77.8145 198.365V197.887C77.8145 197.587 77.6842 197.343 77.4238 197.154C77.1699 196.965 76.6816 196.871 75.959 196.871C75.3665 196.871 74.5983 196.988 73.6543 197.223C73.3027 197.307 73.0293 197.35 72.834 197.35C72.5671 197.35 72.3392 197.255 72.1504 197.066C71.9681 196.871 71.877 196.624 71.877 196.324C71.877 196.155 71.9095 196.008 71.9746 195.885C72.0397 195.761 72.1309 195.663 72.248 195.592C72.3652 195.514 72.6094 195.423 72.9805 195.318C73.4753 195.182 73.9798 195.074 74.4941 194.996C75.0085 194.911 75.474 194.869 75.8906 194.869C77.1341 194.869 78.0977 195.139 78.7812 195.68C79.4714 196.214 79.8164 196.946 79.8164 197.877V201.998H80.1582C80.64 201.998 80.9818 202.092 81.1836 202.281C81.3919 202.464 81.4961 202.704 81.4961 203.004C81.4961 203.297 81.3919 203.538 81.1836 203.727C80.9818 203.909 80.64 204 80.1582 204H77.8145ZM77.8145 200.416C77.0137 200.26 76.2747 200.182 75.5977 200.182C74.7839 200.182 74.084 200.38 73.498 200.777C73.1335 201.031 72.9512 201.288 72.9512 201.549C72.9512 201.738 73.0391 201.891 73.2148 202.008C73.5404 202.223 73.9863 202.33 74.5527 202.33C75.0345 202.33 75.5781 202.236 76.1836 202.047C76.7956 201.858 77.3392 201.601 77.8145 201.275V200.416ZM89.0254 191.334V201.998H91.4277C91.9095 201.998 92.2513 202.092 92.4531 202.281C92.6615 202.464 92.7656 202.704 92.7656 203.004C92.7656 203.297 92.6615 203.538 92.4531 203.727C92.2513 203.909 91.9095 204 91.4277 204H84.6211C84.1393 204 83.7943 203.909 83.5859 203.727C83.3841 203.538 83.2832 203.294 83.2832 202.994C83.2832 202.701 83.3841 202.464 83.5859 202.281C83.7943 202.092 84.1393 201.998 84.6211 201.998H87.0234V193.336H85.4121C84.9368 193.336 84.5951 193.245 84.3867 193.062C84.1784 192.874 84.0742 192.63 84.0742 192.33C84.0742 192.037 84.1751 191.799 84.377 191.617C84.5853 191.428 84.9303 191.334 85.4121 191.334H89.0254ZM36.8477 219.031V224.998H37.5703C38.0521 224.998 38.3939 225.092 38.5957 225.281C38.804 225.464 38.9082 225.704 38.9082 226.004C38.9082 226.297 38.804 226.538 38.5957 226.727C38.3939 226.909 38.0521 227 37.5703 227H34.9434C34.4616 227 34.1198 226.909 33.918 226.727C33.7096 226.538 33.6055 226.294 33.6055 225.994C33.6055 225.701 33.7064 225.464 33.9082 225.281C34.11 225.092 34.4225 224.998 34.8457 224.998V217.166C34.4941 217.133 34.2272 217.026 34.0449 216.844C33.8691 216.661 33.7812 216.434 33.7812 216.16C33.7812 215.861 33.8822 215.62 34.084 215.438C34.2923 215.249 34.6374 215.154 35.1191 215.154L37.3164 215.164L40.041 221.189L42.7168 215.154L44.9336 215.164C45.4154 215.164 45.7572 215.255 45.959 215.438C46.1673 215.62 46.2715 215.861 46.2715 216.16C46.2715 216.434 46.1803 216.661 45.998 216.844C45.8158 217.026 45.5521 217.133 45.207 217.166V224.998C45.6302 224.998 45.9427 225.092 46.1445 225.281C46.3464 225.47 46.4473 225.711 46.4473 226.004C46.4473 226.297 46.3431 226.538 46.1348 226.727C45.9329 226.909 45.5911 227 45.1094 227H42.4727C41.9974 227 41.6556 226.909 41.4473 226.727C41.2454 226.538 41.1445 226.294 41.1445 225.994C41.1445 225.701 41.2454 225.464 41.4473 225.281C41.6556 225.092 41.9974 224.998 42.4727 224.998H43.2051V219.031L40.9102 224.188H39.1719L36.8477 219.031ZM57.6094 221.082C57.6094 222.859 57.043 224.34 55.9102 225.525C54.7839 226.704 53.4785 227.293 51.9941 227.293C50.6595 227.293 49.4551 226.801 48.3809 225.818C47.0527 224.601 46.3887 223.022 46.3887 221.082C46.3887 219.142 47.0527 217.56 48.3809 216.336C49.4551 215.353 50.6595 214.861 51.9941 214.861C53.4785 214.861 54.7839 215.454 55.9102 216.639C57.043 217.817 57.6094 219.298 57.6094 221.082ZM55.6074 221.082C55.6074 219.865 55.2396 218.859 54.5039 218.064C53.7682 217.264 52.9316 216.863 51.9941 216.863C51.0632 216.863 50.2298 217.264 49.4941 218.064C48.7585 218.865 48.3906 219.871 48.3906 221.082C48.3906 222.293 48.7585 223.299 49.4941 224.1C50.2298 224.894 51.0632 225.291 51.9941 225.291C52.9316 225.291 53.7682 224.894 54.5039 224.1C55.2396 223.305 55.6074 222.299 55.6074 221.082ZM68.5957 214.334V224.998H68.9375C69.4128 224.998 69.7546 225.092 69.9629 225.281C70.1712 225.464 70.2754 225.704 70.2754 226.004C70.2754 226.297 70.1712 226.538 69.9629 226.727C69.7611 226.909 69.4193 227 68.9375 227H66.5938V226.512C66.138 226.779 65.6595 226.98 65.1582 227.117C64.6634 227.254 64.1491 227.322 63.6152 227.322C62.1113 227.322 60.9004 226.889 59.9824 226.023C59.0645 225.151 58.6055 224.067 58.6055 222.771C58.6055 221.417 59.0872 220.262 60.0508 219.305C61.0143 218.348 62.1895 217.869 63.5762 217.869C64.097 217.869 64.6081 217.951 65.1094 218.113C65.6107 218.27 66.1055 218.507 66.5938 218.826V216.336H66.252C65.7702 216.336 65.4251 216.245 65.2168 216.062C65.015 215.874 64.9141 215.633 64.9141 215.34C64.9141 215.04 65.015 214.799 65.2168 214.617C65.4251 214.428 65.7702 214.334 66.252 214.334H68.5957ZM66.5938 222.83C66.5938 222.003 66.304 221.303 65.7246 220.73C65.1452 220.158 64.4355 219.871 63.5957 219.871C62.7624 219.871 62.056 220.158 61.4766 220.73C60.8971 221.303 60.6074 221.993 60.6074 222.801C60.6074 223.536 60.8678 224.142 61.3887 224.617C61.9095 225.086 62.6452 225.32 63.5957 225.32C64.5397 225.32 65.2754 225.086 65.8027 224.617C66.3301 224.142 66.5938 223.546 66.5938 222.83ZM81.0371 223.582H72.8242C73.0326 224.103 73.4004 224.523 73.9277 224.842C74.4616 225.161 75.181 225.32 76.0859 225.32C76.8281 225.32 77.8145 225.161 79.0449 224.842C79.5527 224.712 79.9043 224.646 80.0996 224.646C80.3665 224.646 80.5911 224.741 80.7734 224.93C80.9557 225.118 81.0469 225.356 81.0469 225.643C81.0469 225.903 80.9492 226.124 80.7539 226.307C80.4935 226.548 79.8587 226.779 78.8496 227C77.8405 227.215 76.8704 227.322 75.9395 227.322C74.3379 227.322 73.0553 226.87 72.0918 225.965C71.1348 225.06 70.6562 223.947 70.6562 222.625C70.6562 221.219 71.1738 220.076 72.209 219.197C73.2507 218.312 74.4486 217.869 75.8027 217.869C76.6165 217.869 77.362 218.012 78.0391 218.299C78.7227 218.585 79.2305 218.895 79.5625 219.227C80.0312 219.708 80.4186 220.304 80.7246 221.014C80.9329 221.508 81.0371 222.081 81.0371 222.732V223.582ZM78.8203 221.58C78.5143 221.007 78.1139 220.581 77.6191 220.301C77.1243 220.014 76.5352 219.871 75.8516 219.871C75.1745 219.871 74.5885 220.014 74.0938 220.301C73.599 220.581 73.1953 221.007 72.8828 221.58H78.8203Z" fill="black"/>
<path d="M440.938 208.166V215.998H442.959C443.441 215.998 443.783 216.092 443.984 216.281C444.193 216.464 444.297 216.704 444.297 217.004C444.297 217.297 444.193 217.538 443.984 217.727C443.783 217.909 443.441 218 442.959 218H436.914C436.432 218 436.087 217.909 435.879 217.727C435.677 217.538 435.576 217.294 435.576 216.994C435.576 216.701 435.677 216.464 435.879 216.281C436.087 216.092 436.432 215.998 436.914 215.998H438.936V208.166H436.914C436.432 208.166 436.087 208.075 435.879 207.893C435.677 207.704 435.576 207.46 435.576 207.16C435.576 206.861 435.677 206.62 435.879 206.438C436.087 206.249 436.432 206.154 436.914 206.154L442.959 206.164C443.441 206.164 443.783 206.255 443.984 206.438C444.193 206.62 444.297 206.861 444.297 207.16C444.297 207.46 444.193 207.704 443.984 207.893C443.783 208.075 443.441 208.166 442.959 208.166H440.938ZM449.922 209.133V209.807C450.286 209.494 450.687 209.26 451.123 209.104C451.566 208.947 452.044 208.869 452.559 208.869C453.743 208.869 454.681 209.237 455.371 209.973C455.918 210.559 456.191 211.327 456.191 212.277V215.998C456.615 215.998 456.927 216.092 457.129 216.281C457.331 216.464 457.432 216.704 457.432 217.004C457.432 217.297 457.327 217.538 457.119 217.727C456.917 217.909 456.576 218 456.094 218H454.287C453.805 218 453.46 217.909 453.252 217.727C453.05 217.538 452.949 217.294 452.949 216.994C452.949 216.701 453.05 216.464 453.252 216.281C453.454 216.092 453.766 215.998 454.189 215.998V212.219C454.189 211.783 454.072 211.464 453.838 211.262C453.532 211.001 453.073 210.871 452.461 210.871C451.999 210.871 451.592 210.962 451.24 211.145C450.895 211.32 450.456 211.698 449.922 212.277V215.998C450.436 215.998 450.768 216.047 450.918 216.145C451.237 216.34 451.396 216.626 451.396 217.004C451.396 217.297 451.292 217.538 451.084 217.727C450.882 217.909 450.54 218 450.059 218H447.783C447.301 218 446.956 217.909 446.748 217.727C446.546 217.538 446.445 217.294 446.445 216.994C446.445 216.63 446.602 216.346 446.914 216.145C447.07 216.047 447.406 215.998 447.92 215.998V211.135C447.497 211.135 447.184 211.04 446.982 210.852C446.781 210.663 446.68 210.422 446.68 210.129C446.68 209.836 446.781 209.598 446.982 209.416C447.191 209.227 447.536 209.133 448.018 209.133H449.922ZM466.123 211.477C465.798 211.275 465.456 211.125 465.098 211.027C464.74 210.923 464.365 210.871 463.975 210.871C463.2 210.871 462.585 210.998 462.129 211.252C461.927 211.363 461.826 211.483 461.826 211.613C461.826 211.763 461.963 211.91 462.236 212.053C462.445 212.157 462.91 212.258 463.633 212.355C464.961 212.538 465.885 212.72 466.406 212.902C467.09 213.143 467.617 213.501 467.988 213.977C468.359 214.452 468.545 214.953 468.545 215.48C468.545 216.197 468.229 216.796 467.598 217.277C466.693 217.974 465.518 218.322 464.072 218.322C463.493 218.322 462.956 218.27 462.461 218.166C461.973 218.068 461.523 217.922 461.113 217.727C461.016 217.811 460.911 217.876 460.801 217.922C460.69 217.967 460.576 217.99 460.459 217.99C460.146 217.99 459.896 217.889 459.707 217.688C459.525 217.479 459.434 217.134 459.434 216.652V215.979C459.434 215.497 459.525 215.155 459.707 214.953C459.896 214.745 460.14 214.641 460.439 214.641C460.68 214.641 460.882 214.709 461.045 214.846C461.208 214.976 461.335 215.204 461.426 215.529C461.732 215.79 462.1 215.988 462.529 216.125C462.959 216.255 463.454 216.32 464.014 216.32C464.932 216.32 465.645 216.177 466.152 215.891C466.393 215.747 466.514 215.598 466.514 215.441C466.514 215.181 466.341 214.966 465.996 214.797C465.651 214.628 464.938 214.484 463.857 214.367C462.249 214.198 461.175 213.872 460.635 213.391C460.094 212.915 459.824 212.329 459.824 211.633C459.824 210.917 460.127 210.321 460.732 209.846C461.553 209.195 462.627 208.869 463.955 208.869C464.417 208.869 464.86 208.915 465.283 209.006C465.713 209.09 466.123 209.224 466.514 209.406C466.637 209.315 466.751 209.247 466.855 209.201C466.966 209.156 467.067 209.133 467.158 209.133C467.432 209.133 467.66 209.237 467.842 209.445C468.024 209.647 468.115 209.989 468.115 210.471V210.959C468.115 211.395 468.063 211.691 467.959 211.848C467.751 212.147 467.467 212.297 467.109 212.297C466.868 212.297 466.657 212.222 466.475 212.072C466.292 211.923 466.175 211.724 466.123 211.477ZM480.996 214.582H472.783C472.992 215.103 473.359 215.523 473.887 215.842C474.421 216.161 475.14 216.32 476.045 216.32C476.787 216.32 477.773 216.161 479.004 215.842C479.512 215.712 479.863 215.646 480.059 215.646C480.326 215.646 480.55 215.741 480.732 215.93C480.915 216.118 481.006 216.356 481.006 216.643C481.006 216.903 480.908 217.124 480.713 217.307C480.452 217.548 479.818 217.779 478.809 218C477.799 218.215 476.829 218.322 475.898 218.322C474.297 218.322 473.014 217.87 472.051 216.965C471.094 216.06 470.615 214.947 470.615 213.625C470.615 212.219 471.133 211.076 472.168 210.197C473.21 209.312 474.408 208.869 475.762 208.869C476.576 208.869 477.321 209.012 477.998 209.299C478.682 209.585 479.189 209.895 479.521 210.227C479.99 210.708 480.378 211.304 480.684 212.014C480.892 212.508 480.996 213.081 480.996 213.732V214.582ZM478.779 212.58C478.473 212.007 478.073 211.581 477.578 211.301C477.083 211.014 476.494 210.871 475.811 210.871C475.133 210.871 474.548 211.014 474.053 211.301C473.558 211.581 473.154 212.007 472.842 212.58H478.779ZM487.568 209.133V210.383C488.408 209.777 489.069 209.374 489.551 209.172C490.039 208.97 490.495 208.869 490.918 208.869C491.569 208.869 492.201 209.11 492.812 209.592C493.229 209.917 493.438 210.249 493.438 210.588C493.438 210.874 493.337 211.118 493.135 211.32C492.939 211.516 492.702 211.613 492.422 211.613C492.174 211.613 491.914 211.49 491.641 211.242C491.367 210.995 491.123 210.871 490.908 210.871C490.628 210.871 490.208 211.047 489.648 211.398C489.095 211.75 488.402 212.277 487.568 212.98V215.998H490.42C490.902 215.998 491.243 216.092 491.445 216.281C491.654 216.464 491.758 216.704 491.758 217.004C491.758 217.297 491.654 217.538 491.445 217.727C491.243 217.909 490.902 218 490.42 218H484.375C483.893 218 483.548 217.909 483.34 217.727C483.138 217.538 483.037 217.294 483.037 216.994C483.037 216.701 483.138 216.464 483.34 216.281C483.548 216.092 483.893 215.998 484.375 215.998H485.566V211.135H484.844C484.362 211.135 484.017 211.044 483.809 210.861C483.607 210.673 483.506 210.428 483.506 210.129C483.506 209.836 483.607 209.598 483.809 209.416C484.017 209.227 484.362 209.133 484.844 209.133H487.568ZM499.502 211.135V215.148C499.502 215.578 499.59 215.861 499.766 215.998C500.039 216.213 500.527 216.32 501.23 216.32C502.253 216.32 503.197 216.102 504.062 215.666C504.395 215.497 504.655 215.412 504.844 215.412C505.104 215.412 505.329 215.51 505.518 215.705C505.713 215.9 505.811 216.138 505.811 216.418C505.811 216.678 505.706 216.903 505.498 217.092C505.179 217.398 504.548 217.681 503.604 217.941C502.666 218.195 501.875 218.322 501.23 218.322C499.987 218.322 499.053 218.055 498.428 217.521C497.809 216.981 497.5 216.32 497.5 215.539V211.135H496.777C496.296 211.135 495.951 211.044 495.742 210.861C495.54 210.673 495.439 210.428 495.439 210.129C495.439 209.836 495.54 209.598 495.742 209.416C495.951 209.227 496.296 209.133 496.777 209.133H497.5V207.326C497.5 206.844 497.591 206.503 497.773 206.301C497.962 206.092 498.206 205.988 498.506 205.988C498.799 205.988 499.036 206.092 499.219 206.301C499.408 206.503 499.502 206.844 499.502 207.326V209.133H503.203C503.685 209.133 504.027 209.227 504.229 209.416C504.437 209.598 504.541 209.839 504.541 210.139C504.541 210.432 504.437 210.673 504.229 210.861C504.027 211.044 503.685 211.135 503.203 211.135H499.502ZM520.928 209.133V209.699C521.253 209.38 521.546 209.162 521.807 209.045C522.074 208.921 522.38 208.859 522.725 208.859C523.018 208.859 523.307 208.931 523.594 209.074C523.88 209.217 524.16 209.432 524.434 209.719C524.779 209.432 525.127 209.221 525.479 209.084C525.837 208.941 526.201 208.869 526.572 208.869C527.314 208.869 527.917 209.068 528.379 209.465C528.991 209.986 529.297 210.669 529.297 211.516V215.998C529.714 215.998 530.023 216.092 530.225 216.281C530.426 216.47 530.527 216.711 530.527 217.004C530.527 217.297 530.426 217.538 530.225 217.727C530.023 217.909 529.681 218 529.199 218H527.295V211.682C527.295 211.376 527.24 211.164 527.129 211.047C527.018 210.93 526.849 210.871 526.621 210.871C526.4 210.871 526.195 210.93 526.006 211.047C525.765 211.21 525.472 211.516 525.127 211.965V215.998C525.544 215.998 525.853 216.092 526.055 216.281C526.257 216.47 526.357 216.711 526.357 217.004C526.357 217.297 526.257 217.538 526.055 217.727C525.853 217.909 525.511 218 525.029 218H523.125V211.682C523.125 211.382 523.066 211.174 522.949 211.057C522.839 210.933 522.669 210.871 522.441 210.871C522.207 210.871 521.976 210.946 521.748 211.096C521.52 211.239 521.247 211.529 520.928 211.965V215.998C521.344 215.998 521.654 216.092 521.855 216.281C522.064 216.47 522.168 216.711 522.168 217.004C522.168 217.297 522.064 217.538 521.855 217.727C521.654 217.909 521.312 218 520.83 218H519.023C518.542 218 518.2 217.909 517.998 217.727C517.79 217.538 517.686 217.294 517.686 216.994C517.686 216.701 517.786 216.464 517.988 216.281C518.19 216.092 518.503 215.998 518.926 215.998V211.135C518.503 211.135 518.19 211.04 517.988 210.852C517.786 210.663 517.686 210.422 517.686 210.129C517.686 209.836 517.79 209.598 517.998 209.416C518.2 209.227 518.542 209.133 519.023 209.133H520.928ZM541.23 213.732C541.23 214.501 541.016 215.246 540.586 215.969C540.163 216.685 539.528 217.258 538.682 217.688C537.842 218.111 536.963 218.322 536.045 218.322C535.133 218.322 534.261 218.114 533.428 217.697C532.594 217.274 531.96 216.701 531.523 215.979C531.087 215.256 530.869 214.501 530.869 213.713C530.869 212.912 531.09 212.128 531.533 211.359C531.976 210.585 532.611 209.976 533.438 209.533C534.271 209.09 535.14 208.869 536.045 208.869C536.956 208.869 537.832 209.097 538.672 209.553C539.518 210.002 540.156 210.611 540.586 211.379C541.016 212.141 541.23 212.925 541.23 213.732ZM539.229 213.742C539.229 213.098 538.997 212.505 538.535 211.965C537.904 211.236 537.074 210.871 536.045 210.871C535.14 210.871 534.385 211.161 533.779 211.74C533.174 212.32 532.871 212.99 532.871 213.752C532.871 214.377 533.177 214.963 533.789 215.51C534.401 216.05 535.153 216.32 536.045 216.32C536.943 216.32 537.699 216.05 538.311 215.51C538.923 214.963 539.229 214.374 539.229 213.742ZM552.637 205.334V215.998H552.979C553.454 215.998 553.796 216.092 554.004 216.281C554.212 216.464 554.316 216.704 554.316 217.004C554.316 217.297 554.212 217.538 554.004 217.727C553.802 217.909 553.46 218 552.979 218H550.635V217.512C550.179 217.779 549.701 217.98 549.199 218.117C548.704 218.254 548.19 218.322 547.656 218.322C546.152 218.322 544.941 217.889 544.023 217.023C543.105 216.151 542.646 215.067 542.646 213.771C542.646 212.417 543.128 211.262 544.092 210.305C545.055 209.348 546.23 208.869 547.617 208.869C548.138 208.869 548.649 208.951 549.15 209.113C549.652 209.27 550.146 209.507 550.635 209.826V207.336H550.293C549.811 207.336 549.466 207.245 549.258 207.062C549.056 206.874 548.955 206.633 548.955 206.34C548.955 206.04 549.056 205.799 549.258 205.617C549.466 205.428 549.811 205.334 550.293 205.334H552.637ZM550.635 213.83C550.635 213.003 550.345 212.303 549.766 211.73C549.186 211.158 548.477 210.871 547.637 210.871C546.803 210.871 546.097 211.158 545.518 211.73C544.938 212.303 544.648 212.993 544.648 213.801C544.648 214.536 544.909 215.142 545.43 215.617C545.951 216.086 546.686 216.32 547.637 216.32C548.581 216.32 549.316 216.086 549.844 215.617C550.371 215.142 550.635 214.546 550.635 213.83ZM565.078 214.582H556.865C557.074 215.103 557.441 215.523 557.969 215.842C558.503 216.161 559.222 216.32 560.127 216.32C560.869 216.32 561.855 216.161 563.086 215.842C563.594 215.712 563.945 215.646 564.141 215.646C564.408 215.646 564.632 215.741 564.814 215.93C564.997 216.118 565.088 216.356 565.088 216.643C565.088 216.903 564.99 217.124 564.795 217.307C564.535 217.548 563.9 217.779 562.891 218C561.882 218.215 560.911 218.322 559.98 218.322C558.379 218.322 557.096 217.87 556.133 216.965C555.176 216.06 554.697 214.947 554.697 213.625C554.697 212.219 555.215 211.076 556.25 210.197C557.292 209.312 558.49 208.869 559.844 208.869C560.658 208.869 561.403 209.012 562.08 209.299C562.764 209.585 563.271 209.895 563.604 210.227C564.072 210.708 564.46 211.304 564.766 212.014C564.974 212.508 565.078 213.081 565.078 213.732V214.582ZM562.861 212.58C562.555 212.007 562.155 211.581 561.66 211.301C561.165 211.014 560.576 210.871 559.893 210.871C559.215 210.871 558.63 211.014 558.135 211.301C557.64 211.581 557.236 212.007 556.924 212.58H562.861Z" fill="black"/>
<path d="M436.432 384.08L439.332 377.166H438.873C438.391 377.166 438.046 377.075 437.838 376.893C437.636 376.704 437.535 376.46 437.535 376.16C437.535 375.861 437.636 375.62 437.838 375.438C438.046 375.249 438.391 375.154 438.873 375.154L441.559 375.164C442.04 375.164 442.382 375.255 442.584 375.438C442.792 375.62 442.896 375.861 442.896 376.16C442.896 376.518 442.74 376.801 442.428 377.01C442.278 377.114 441.972 377.166 441.51 377.166L437.398 387H435.475L431.373 377.166C430.904 377.166 430.595 377.114 430.445 377.01C430.133 376.808 429.977 376.525 429.977 376.16C429.977 375.861 430.081 375.62 430.289 375.438C430.491 375.249 430.833 375.154 431.314 375.154L434.02 375.164C434.495 375.164 434.833 375.255 435.035 375.438C435.243 375.62 435.348 375.861 435.348 376.16C435.348 376.46 435.247 376.704 435.045 376.893C434.843 377.075 434.501 377.166 434.02 377.166H433.551L436.432 384.08ZM449.166 374.334V376.453H446.783V374.334H449.166ZM449.439 378.133V384.998H451.842C452.324 384.998 452.665 385.092 452.867 385.281C453.076 385.464 453.18 385.704 453.18 386.004C453.18 386.297 453.076 386.538 452.867 386.727C452.665 386.909 452.324 387 451.842 387H445.035C444.553 387 444.208 386.909 444 386.727C443.798 386.538 443.697 386.294 443.697 385.994C443.697 385.701 443.798 385.464 444 385.281C444.208 385.092 444.553 384.998 445.035 384.998H447.438V380.135H445.826C445.351 380.135 445.009 380.044 444.801 379.861C444.592 379.673 444.488 379.428 444.488 379.129C444.488 378.836 444.589 378.598 444.791 378.416C444.999 378.227 445.344 378.133 445.826 378.133H449.439ZM462.623 380.477C462.298 380.275 461.956 380.125 461.598 380.027C461.24 379.923 460.865 379.871 460.475 379.871C459.7 379.871 459.085 379.998 458.629 380.252C458.427 380.363 458.326 380.483 458.326 380.613C458.326 380.763 458.463 380.91 458.736 381.053C458.945 381.157 459.41 381.258 460.133 381.355C461.461 381.538 462.385 381.72 462.906 381.902C463.59 382.143 464.117 382.501 464.488 382.977C464.859 383.452 465.045 383.953 465.045 384.48C465.045 385.197 464.729 385.796 464.098 386.277C463.193 386.974 462.018 387.322 460.572 387.322C459.993 387.322 459.456 387.27 458.961 387.166C458.473 387.068 458.023 386.922 457.613 386.727C457.516 386.811 457.411 386.876 457.301 386.922C457.19 386.967 457.076 386.99 456.959 386.99C456.646 386.99 456.396 386.889 456.207 386.688C456.025 386.479 455.934 386.134 455.934 385.652V384.979C455.934 384.497 456.025 384.155 456.207 383.953C456.396 383.745 456.64 383.641 456.939 383.641C457.18 383.641 457.382 383.709 457.545 383.846C457.708 383.976 457.835 384.204 457.926 384.529C458.232 384.79 458.6 384.988 459.029 385.125C459.459 385.255 459.954 385.32 460.514 385.32C461.432 385.32 462.145 385.177 462.652 384.891C462.893 384.747 463.014 384.598 463.014 384.441C463.014 384.181 462.841 383.966 462.496 383.797C462.151 383.628 461.438 383.484 460.357 383.367C458.749 383.198 457.675 382.872 457.135 382.391C456.594 381.915 456.324 381.329 456.324 380.633C456.324 379.917 456.627 379.321 457.232 378.846C458.053 378.195 459.127 377.869 460.455 377.869C460.917 377.869 461.36 377.915 461.783 378.006C462.213 378.09 462.623 378.224 463.014 378.406C463.137 378.315 463.251 378.247 463.355 378.201C463.466 378.156 463.567 378.133 463.658 378.133C463.932 378.133 464.16 378.237 464.342 378.445C464.524 378.647 464.615 378.989 464.615 379.471V379.959C464.615 380.395 464.563 380.691 464.459 380.848C464.251 381.147 463.967 381.297 463.609 381.297C463.368 381.297 463.157 381.222 462.975 381.072C462.792 380.923 462.675 380.724 462.623 380.477ZM476.725 378.133V384.998C477.148 384.998 477.46 385.092 477.662 385.281C477.864 385.47 477.965 385.711 477.965 386.004C477.965 386.297 477.861 386.538 477.652 386.727C477.451 386.909 477.109 387 476.627 387H474.723V386.541C474.15 386.801 473.603 386.997 473.082 387.127C472.561 387.257 472.066 387.322 471.598 387.322C470.94 387.322 470.37 387.186 469.889 386.912C469.407 386.632 469.026 386.248 468.746 385.76C468.544 385.408 468.443 384.969 468.443 384.441V380.135H468.102C467.62 380.135 467.275 380.044 467.066 379.861C466.865 379.673 466.764 379.428 466.764 379.129C466.764 378.836 466.865 378.598 467.066 378.416C467.275 378.227 467.62 378.133 468.102 378.133H470.445V384.09C470.445 384.513 470.546 384.826 470.748 385.027C470.956 385.223 471.272 385.32 471.695 385.32C472.099 385.32 472.532 385.242 472.994 385.086C473.463 384.923 474.039 384.633 474.723 384.217V380.135H474C473.518 380.135 473.173 380.044 472.965 379.861C472.763 379.673 472.662 379.428 472.662 379.129C472.662 378.836 472.763 378.598 472.965 378.416C473.173 378.227 473.518 378.133 474 378.133H476.725ZM486.285 387V386.531C485.784 386.798 485.23 386.997 484.625 387.127C484.02 387.264 483.469 387.332 482.975 387.332C481.9 387.332 481.028 387.049 480.357 386.482C479.687 385.91 479.352 385.278 479.352 384.588C479.352 383.748 479.778 382.97 480.631 382.254C481.49 381.531 482.675 381.17 484.186 381.17C484.791 381.17 485.491 381.235 486.285 381.365V380.887C486.285 380.587 486.155 380.343 485.895 380.154C485.641 379.965 485.152 379.871 484.43 379.871C483.837 379.871 483.069 379.988 482.125 380.223C481.773 380.307 481.5 380.35 481.305 380.35C481.038 380.35 480.81 380.255 480.621 380.066C480.439 379.871 480.348 379.624 480.348 379.324C480.348 379.155 480.38 379.008 480.445 378.885C480.51 378.761 480.602 378.663 480.719 378.592C480.836 378.514 481.08 378.423 481.451 378.318C481.946 378.182 482.451 378.074 482.965 377.996C483.479 377.911 483.945 377.869 484.361 377.869C485.605 377.869 486.568 378.139 487.252 378.68C487.942 379.214 488.287 379.946 488.287 380.877V384.998H488.629C489.111 384.998 489.452 385.092 489.654 385.281C489.863 385.464 489.967 385.704 489.967 386.004C489.967 386.297 489.863 386.538 489.654 386.727C489.452 386.909 489.111 387 488.629 387H486.285ZM486.285 383.416C485.484 383.26 484.745 383.182 484.068 383.182C483.255 383.182 482.555 383.38 481.969 383.777C481.604 384.031 481.422 384.288 481.422 384.549C481.422 384.738 481.51 384.891 481.686 385.008C482.011 385.223 482.457 385.33 483.023 385.33C483.505 385.33 484.049 385.236 484.654 385.047C485.266 384.858 485.81 384.601 486.285 384.275V383.416ZM497.496 374.334V384.998H499.898C500.38 384.998 500.722 385.092 500.924 385.281C501.132 385.464 501.236 385.704 501.236 386.004C501.236 386.297 501.132 386.538 500.924 386.727C500.722 386.909 500.38 387 499.898 387H493.092C492.61 387 492.265 386.909 492.057 386.727C491.855 386.538 491.754 386.294 491.754 385.994C491.754 385.701 491.855 385.464 492.057 385.281C492.265 385.092 492.61 384.998 493.092 384.998H495.494V376.336H493.883C493.408 376.336 493.066 376.245 492.857 376.062C492.649 375.874 492.545 375.63 492.545 375.33C492.545 375.037 492.646 374.799 492.848 374.617C493.056 374.428 493.401 374.334 493.883 374.334H497.496ZM517.428 378.133V378.699C517.753 378.38 518.046 378.162 518.307 378.045C518.574 377.921 518.88 377.859 519.225 377.859C519.518 377.859 519.807 377.931 520.094 378.074C520.38 378.217 520.66 378.432 520.934 378.719C521.279 378.432 521.627 378.221 521.979 378.084C522.337 377.941 522.701 377.869 523.072 377.869C523.814 377.869 524.417 378.068 524.879 378.465C525.491 378.986 525.797 379.669 525.797 380.516V384.998C526.214 384.998 526.523 385.092 526.725 385.281C526.926 385.47 527.027 385.711 527.027 386.004C527.027 386.297 526.926 386.538 526.725 386.727C526.523 386.909 526.181 387 525.699 387H523.795V380.682C523.795 380.376 523.74 380.164 523.629 380.047C523.518 379.93 523.349 379.871 523.121 379.871C522.9 379.871 522.695 379.93 522.506 380.047C522.265 380.21 521.972 380.516 521.627 380.965V384.998C522.044 384.998 522.353 385.092 522.555 385.281C522.757 385.47 522.857 385.711 522.857 386.004C522.857 386.297 522.757 386.538 522.555 386.727C522.353 386.909 522.011 387 521.529 387H519.625V380.682C519.625 380.382 519.566 380.174 519.449 380.057C519.339 379.933 519.169 379.871 518.941 379.871C518.707 379.871 518.476 379.946 518.248 380.096C518.02 380.239 517.747 380.529 517.428 380.965V384.998C517.844 384.998 518.154 385.092 518.355 385.281C518.564 385.47 518.668 385.711 518.668 386.004C518.668 386.297 518.564 386.538 518.355 386.727C518.154 386.909 517.812 387 517.33 387H515.523C515.042 387 514.7 386.909 514.498 386.727C514.29 386.538 514.186 386.294 514.186 385.994C514.186 385.701 514.286 385.464 514.488 385.281C514.69 385.092 515.003 384.998 515.426 384.998V380.135C515.003 380.135 514.69 380.04 514.488 379.852C514.286 379.663 514.186 379.422 514.186 379.129C514.186 378.836 514.29 378.598 514.498 378.416C514.7 378.227 515.042 378.133 515.523 378.133H517.428ZM537.73 382.732C537.73 383.501 537.516 384.246 537.086 384.969C536.663 385.685 536.028 386.258 535.182 386.688C534.342 387.111 533.463 387.322 532.545 387.322C531.633 387.322 530.761 387.114 529.928 386.697C529.094 386.274 528.46 385.701 528.023 384.979C527.587 384.256 527.369 383.501 527.369 382.713C527.369 381.912 527.59 381.128 528.033 380.359C528.476 379.585 529.111 378.976 529.938 378.533C530.771 378.09 531.64 377.869 532.545 377.869C533.456 377.869 534.332 378.097 535.172 378.553C536.018 379.002 536.656 379.611 537.086 380.379C537.516 381.141 537.73 381.925 537.73 382.732ZM535.729 382.742C535.729 382.098 535.497 381.505 535.035 380.965C534.404 380.236 533.574 379.871 532.545 379.871C531.64 379.871 530.885 380.161 530.279 380.74C529.674 381.32 529.371 381.99 529.371 382.752C529.371 383.377 529.677 383.963 530.289 384.51C530.901 385.05 531.653 385.32 532.545 385.32C533.443 385.32 534.199 385.05 534.811 384.51C535.423 383.963 535.729 383.374 535.729 382.742ZM549.137 374.334V384.998H549.479C549.954 384.998 550.296 385.092 550.504 385.281C550.712 385.464 550.816 385.704 550.816 386.004C550.816 386.297 550.712 386.538 550.504 386.727C550.302 386.909 549.96 387 549.479 387H547.135V386.512C546.679 386.779 546.201 386.98 545.699 387.117C545.204 387.254 544.69 387.322 544.156 387.322C542.652 387.322 541.441 386.889 540.523 386.023C539.605 385.151 539.146 384.067 539.146 382.771C539.146 381.417 539.628 380.262 540.592 379.305C541.555 378.348 542.73 377.869 544.117 377.869C544.638 377.869 545.149 377.951 545.65 378.113C546.152 378.27 546.646 378.507 547.135 378.826V376.336H546.793C546.311 376.336 545.966 376.245 545.758 376.062C545.556 375.874 545.455 375.633 545.455 375.34C545.455 375.04 545.556 374.799 545.758 374.617C545.966 374.428 546.311 374.334 546.793 374.334H549.137ZM547.135 382.83C547.135 382.003 546.845 381.303 546.266 380.73C545.686 380.158 544.977 379.871 544.137 379.871C543.303 379.871 542.597 380.158 542.018 380.73C541.438 381.303 541.148 381.993 541.148 382.801C541.148 383.536 541.409 384.142 541.93 384.617C542.451 385.086 543.186 385.32 544.137 385.32C545.081 385.32 545.816 385.086 546.344 384.617C546.871 384.142 547.135 383.546 547.135 382.83ZM561.578 383.582H553.365C553.574 384.103 553.941 384.523 554.469 384.842C555.003 385.161 555.722 385.32 556.627 385.32C557.369 385.32 558.355 385.161 559.586 384.842C560.094 384.712 560.445 384.646 560.641 384.646C560.908 384.646 561.132 384.741 561.314 384.93C561.497 385.118 561.588 385.356 561.588 385.643C561.588 385.903 561.49 386.124 561.295 386.307C561.035 386.548 560.4 386.779 559.391 387C558.382 387.215 557.411 387.322 556.48 387.322C554.879 387.322 553.596 386.87 552.633 385.965C551.676 385.06 551.197 383.947 551.197 382.625C551.197 381.219 551.715 380.076 552.75 379.197C553.792 378.312 554.99 377.869 556.344 377.869C557.158 377.869 557.903 378.012 558.58 378.299C559.264 378.585 559.771 378.895 560.104 379.227C560.572 379.708 560.96 380.304 561.266 381.014C561.474 381.508 561.578 382.081 561.578 382.732V383.582ZM559.361 381.58C559.055 381.007 558.655 380.581 558.16 380.301C557.665 380.014 557.076 379.871 556.393 379.871C555.715 379.871 555.13 380.014 554.635 380.301C554.14 380.581 553.736 381.007 553.424 381.58H559.361Z" fill="black"/>
<rect x="372" y="342" width="249" height="79" rx="4" stroke="#86C500" stroke-width="4"/>
<path d="M350.398 25.5447C350.698 24.7728 350.317 23.9032 349.545 23.6024L336.966 18.7002C336.194 18.3994 335.325 18.7812 335.024 19.5531C334.723 20.325 335.105 21.1946 335.877 21.4954L347.058 25.8529L342.7 37.0338C342.399 37.8057 342.781 38.6753 343.553 38.9761C344.325 39.2769 345.195 38.8951 345.495 38.1232L350.398 25.5447ZM119.603 127.373L349.603 26.3734L348.397 23.6266L118.397 124.627L119.603 127.373Z" fill="black"/>
<path d="M121.467 150.14C121.167 150.912 121.55 151.781 122.322 152.081L134.906 156.97C135.678 157.27 136.547 156.887 136.847 156.114C137.147 155.342 136.764 154.473 135.992 154.173L124.806 149.828L129.152 138.642C129.452 137.87 129.069 137.001 128.297 136.701C127.524 136.401 126.655 136.784 126.355 137.556L121.467 150.14ZM355.395 46.6273L122.26 149.31L123.47 152.056L356.605 49.3727L355.395 46.6273Z" fill="black"/>
<path d="M357.061 207.061C357.646 206.475 357.646 205.525 357.061 204.939L347.515 195.393C346.929 194.808 345.979 194.808 345.393 195.393C344.808 195.979 344.808 196.929 345.393 197.515L353.879 206L345.393 214.485C344.808 215.071 344.808 216.021 345.393 216.607C345.979 217.192 346.929 217.192 347.515 216.607L357.061 207.061ZM121 207.5H356V204.5H121V207.5Z" fill="black"/>
<path d="M119.939 227.939C119.354 228.525 119.354 229.475 119.939 230.061L129.485 239.607C130.071 240.192 131.021 240.192 131.607 239.607C132.192 239.021 132.192 238.071 131.607 237.485L123.121 229L131.607 220.515C132.192 219.929 132.192 218.979 131.607 218.393C131.021 217.808 130.071 217.808 129.485 218.393L119.939 227.939ZM356 227.5L121 227.5V230.5L356 230.5V227.5Z" fill="black"/>
<path d="M349.657 371.349C350.401 370.986 350.711 370.088 350.349 369.343L344.439 357.205C344.077 356.461 343.179 356.151 342.434 356.513C341.689 356.876 341.379 357.774 341.742 358.519L346.995 369.308L336.205 374.561C335.461 374.923 335.151 375.821 335.513 376.566C335.876 377.311 336.774 377.621 337.519 377.258L349.657 371.349ZM122.511 293.418L348.511 371.418L349.489 368.582L123.489 290.582L122.511 293.418Z" fill="black"/>
<path d="M121.277 311.728C120.53 312.086 120.215 312.982 120.573 313.729L126.408 325.902C126.766 326.649 127.662 326.965 128.409 326.607C129.156 326.249 129.471 325.353 129.113 324.606L123.926 313.785L134.747 308.598C135.494 308.239 135.81 307.344 135.452 306.597C135.094 305.85 134.198 305.534 133.451 305.892L121.277 311.728ZM349.498 391.585L122.423 311.665L121.427 314.495L348.502 394.415L349.498 391.585Z" fill="black"/>
<path d="M231.346 123.035L233.441 127.239L239.088 124.426L238.008 122.258C237.921 122.083 237.89 121.942 237.917 121.834C237.949 121.724 238.02 121.641 238.131 121.586C238.242 121.53 238.348 121.525 238.45 121.568C238.557 121.609 238.655 121.717 238.742 121.892L240.188 124.794L232.085 128.832C231.911 128.919 231.768 128.946 231.657 128.914C231.547 128.882 231.465 128.813 231.413 128.708C231.358 128.598 231.352 128.491 231.396 128.39C231.437 128.282 231.545 128.184 231.72 128.097L232.707 127.605L228.343 118.847L227.355 119.339C227.181 119.426 227.039 119.457 226.932 119.431C226.821 119.398 226.738 119.327 226.683 119.216C226.628 119.105 226.622 118.999 226.666 118.897C226.707 118.79 226.815 118.692 226.989 118.605L234.707 114.759L235.966 117.285C236.053 117.46 236.081 117.603 236.048 117.713C236.022 117.821 235.954 117.902 235.843 117.958C235.732 118.013 235.623 118.02 235.515 117.979C235.413 117.935 235.319 117.826 235.232 117.651L234.339 115.859L229.077 118.481L230.981 122.301L233.611 120.99L233.198 120.16C233.111 119.985 233.083 119.842 233.115 119.731C233.147 119.621 233.219 119.538 233.33 119.483C233.435 119.43 233.541 119.425 233.648 119.466C233.756 119.507 233.854 119.614 233.941 119.789L235.134 122.184C235.221 122.359 235.249 122.502 235.216 122.612C235.184 122.723 235.116 122.804 235.011 122.857C234.9 122.912 234.791 122.919 234.683 122.878C234.576 122.837 234.478 122.729 234.391 122.554L233.977 121.724L231.346 123.035ZM244.845 110.624L244.723 110.379C244.636 110.204 244.606 110.063 244.632 109.955C244.664 109.845 244.736 109.762 244.846 109.707C244.957 109.652 245.063 109.646 245.165 109.69C245.273 109.731 245.37 109.838 245.457 110.013L246.389 111.884C246.476 112.058 246.504 112.201 246.472 112.312C246.445 112.419 246.377 112.501 246.266 112.556C246.161 112.608 246.056 112.617 245.952 112.582C245.853 112.544 245.761 112.448 245.677 112.293C245.404 111.818 244.931 111.505 244.259 111.352C243.592 111.197 242.874 111.311 242.105 111.695C241.295 112.098 240.756 112.629 240.487 113.286C240.216 113.938 240.221 114.547 240.502 115.112C240.647 115.403 240.847 115.635 241.1 115.807C241.353 115.979 241.628 116.086 241.925 116.127C242.219 116.162 242.529 116.157 242.855 116.111C243.178 116.059 243.662 115.934 244.305 115.737C245.383 115.404 246.153 115.227 246.616 115.208C247.237 115.182 247.775 115.307 248.232 115.581C248.694 115.852 249.062 116.262 249.335 116.81C249.753 117.649 249.775 118.532 249.401 119.461C249.025 120.383 248.268 121.127 247.132 121.694C245.856 122.33 244.637 122.439 243.476 122.021L243.685 122.44C243.772 122.615 243.8 122.758 243.767 122.868C243.741 122.976 243.672 123.057 243.562 123.113C243.457 123.165 243.351 123.171 243.243 123.13C243.135 123.089 243.038 122.981 242.951 122.806L241.94 120.778C241.85 120.598 241.818 120.454 241.845 120.346C241.877 120.235 241.948 120.152 242.059 120.097C242.164 120.045 242.266 120.038 242.365 120.076C242.47 120.111 242.564 120.206 242.648 120.36C242.945 120.882 243.474 121.229 244.237 121.402C245.002 121.566 245.845 121.418 246.766 120.959C247.687 120.501 248.297 119.909 248.598 119.184C248.905 118.457 248.901 117.779 248.588 117.149C248.396 116.765 248.124 116.475 247.772 116.279C247.417 116.078 246.995 115.99 246.506 116.015C246.165 116.032 245.515 116.186 244.553 116.476C243.234 116.879 242.202 117.004 241.456 116.851C240.711 116.699 240.146 116.235 239.759 115.46C239.376 114.691 239.352 113.877 239.688 113.019C240.03 112.158 240.705 111.476 241.713 110.973C242.739 110.462 243.783 110.346 244.845 110.624ZM256.334 105.237L256.077 104.721C255.99 104.546 255.959 104.405 255.986 104.297C256.018 104.187 256.089 104.104 256.2 104.049C256.311 103.994 256.417 103.988 256.519 104.032C256.627 104.073 256.724 104.18 256.811 104.355L257.826 106.392C257.916 106.572 257.945 106.718 257.913 106.829C257.886 106.936 257.818 107.018 257.707 107.073C257.608 107.122 257.506 107.129 257.401 107.094C257.303 107.056 257.208 106.962 257.118 106.81C256.845 106.335 256.363 106.033 255.674 105.904C254.739 105.722 253.841 105.846 252.978 106.276C252.413 106.558 251.943 106.949 251.566 107.449C251.283 107.816 251.097 108.185 251.006 108.558C250.848 109.204 250.793 109.86 250.842 110.527C250.882 111.016 251.029 111.517 251.285 112.03L251.925 113.315C252.471 114.41 253.342 115.166 254.538 115.581C255.731 115.99 256.852 115.933 257.901 115.41C258.531 115.097 259.025 114.68 259.383 114.159C259.748 113.635 260.026 112.981 260.216 112.195C260.254 112.023 260.334 111.907 260.457 111.846C260.561 111.794 260.662 111.783 260.758 111.816C260.854 111.848 260.927 111.913 260.976 112.012C261.043 112.146 261.019 112.413 260.905 112.812C260.694 113.586 260.357 114.259 259.894 114.832C259.433 115.397 258.896 115.831 258.285 116.136C257.754 116.4 257.165 116.567 256.515 116.636C256.017 116.688 255.579 116.677 255.201 116.603C254.822 116.53 254.309 116.346 253.66 116.051C253.014 115.747 252.513 115.422 252.159 115.075C251.801 114.722 251.496 114.293 251.243 113.786L250.498 112.291C250.138 111.568 249.963 110.736 249.973 109.792C249.986 108.84 250.228 107.996 250.697 107.26C251.17 106.515 251.8 105.947 252.586 105.555C253.798 104.951 255.048 104.845 256.334 105.237Z" fill="black"/>
<path d="M214.272 63.3018L214.587 63.145C214.913 62.9824 215.251 62.9596 215.6 63.0765C215.949 63.1934 216.204 63.4121 216.364 63.7326C216.535 64.0764 216.558 64.4215 216.432 64.7678C216.312 65.1112 216.092 65.3627 215.772 65.5224L215.457 65.6792C215.131 65.8418 214.793 65.8647 214.444 65.7477C214.094 65.6308 213.84 65.4121 213.68 65.0916C213.509 64.7478 213.483 64.4042 213.603 64.0608C213.729 63.7145 213.952 63.4615 214.272 63.3018ZM216.994 68.7646L217.309 68.6078C217.635 68.4452 217.973 68.4224 218.322 68.5393C218.669 68.6504 218.923 68.8691 219.086 69.1954C219.254 69.5334 219.276 69.8755 219.15 70.2218C219.03 70.5652 218.81 70.8168 218.489 70.9765L218.175 71.1333C217.848 71.2959 217.512 71.3216 217.166 71.2105C216.817 71.0936 216.561 70.872 216.398 70.5457C216.23 70.2077 216.205 69.867 216.325 69.5236C216.451 69.1773 216.674 68.9243 216.994 68.7646Z" fill="black"/>
<path d="M228.312 242.482V247.18H234.621V244.758C234.621 244.562 234.657 244.423 234.729 244.338C234.807 244.253 234.908 244.211 235.031 244.211C235.155 244.211 235.253 244.253 235.324 244.338C235.402 244.423 235.441 244.562 235.441 244.758V248H226.389C226.193 248 226.053 247.961 225.969 247.883C225.884 247.805 225.842 247.707 225.842 247.59C225.842 247.466 225.884 247.368 225.969 247.297C226.053 247.219 226.193 247.18 226.389 247.18H227.492V237.395H226.389C226.193 237.395 226.053 237.359 225.969 237.287C225.884 237.209 225.842 237.108 225.842 236.984C225.842 236.861 225.884 236.763 225.969 236.691C226.053 236.613 226.193 236.574 226.389 236.574H235.012V239.396C235.012 239.592 234.973 239.732 234.895 239.816C234.823 239.901 234.725 239.943 234.602 239.943C234.478 239.943 234.377 239.901 234.299 239.816C234.227 239.732 234.191 239.592 234.191 239.396V237.395H228.312V241.662H231.252V240.734C231.252 240.539 231.291 240.399 231.369 240.314C231.447 240.23 231.548 240.188 231.672 240.188C231.789 240.188 231.887 240.23 231.965 240.314C232.043 240.399 232.082 240.539 232.082 240.734V243.41C232.082 243.605 232.043 243.745 231.965 243.83C231.887 243.915 231.789 243.957 231.672 243.957C231.548 243.957 231.447 243.915 231.369 243.83C231.291 243.745 231.252 243.605 231.252 243.41V242.482H228.312ZM245.93 237.395V237.121C245.93 236.926 245.965 236.786 246.037 236.701C246.115 236.617 246.216 236.574 246.34 236.574C246.464 236.574 246.561 236.617 246.633 236.701C246.711 236.786 246.75 236.926 246.75 237.121V239.211C246.75 239.406 246.711 239.546 246.633 239.631C246.561 239.715 246.464 239.758 246.34 239.758C246.223 239.758 246.125 239.719 246.047 239.641C245.975 239.562 245.936 239.436 245.93 239.26C245.897 238.713 245.614 238.221 245.08 237.785C244.553 237.349 243.859 237.131 243 237.131C242.095 237.131 241.376 237.365 240.842 237.834C240.308 238.296 240.041 238.843 240.041 239.475C240.041 239.8 240.116 240.096 240.266 240.363C240.415 240.63 240.614 240.848 240.861 241.018C241.109 241.18 241.389 241.314 241.701 241.418C242.014 241.516 242.502 241.62 243.166 241.73C244.279 241.913 245.048 242.098 245.471 242.287C246.037 242.541 246.464 242.893 246.75 243.342C247.043 243.791 247.189 244.322 247.189 244.934C247.189 245.871 246.815 246.672 246.066 247.336C245.318 247.993 244.309 248.322 243.039 248.322C241.613 248.322 240.474 247.876 239.621 246.984V247.453C239.621 247.648 239.582 247.788 239.504 247.873C239.432 247.958 239.335 248 239.211 248C239.094 248 238.996 247.958 238.918 247.873C238.84 247.788 238.801 247.648 238.801 247.453V245.188C238.801 244.986 238.837 244.842 238.908 244.758C238.986 244.673 239.087 244.631 239.211 244.631C239.328 244.631 239.423 244.67 239.494 244.748C239.572 244.826 239.615 244.953 239.621 245.129C239.654 245.728 239.973 246.275 240.578 246.77C241.19 247.258 242.01 247.502 243.039 247.502C244.068 247.502 244.878 247.245 245.471 246.73C246.07 246.216 246.369 245.607 246.369 244.904C246.369 244.475 246.255 244.094 246.027 243.762C245.799 243.423 245.461 243.156 245.012 242.961C244.699 242.824 244.048 242.671 243.059 242.502C241.698 242.274 240.718 241.926 240.119 241.457C239.52 240.988 239.221 240.321 239.221 239.455C239.221 238.596 239.562 237.857 240.246 237.238C240.936 236.62 241.844 236.311 242.971 236.311C244.117 236.311 245.103 236.672 245.93 237.395ZM258.615 237.697V237.121C258.615 236.926 258.651 236.786 258.723 236.701C258.801 236.617 258.902 236.574 259.025 236.574C259.149 236.574 259.247 236.617 259.318 236.701C259.396 236.786 259.436 236.926 259.436 237.121V239.396C259.436 239.598 259.396 239.742 259.318 239.826C259.247 239.911 259.149 239.953 259.025 239.953C258.915 239.953 258.82 239.914 258.742 239.836C258.671 239.758 258.628 239.631 258.615 239.455C258.583 238.908 258.286 238.423 257.727 238C256.971 237.421 256.112 237.131 255.148 237.131C254.517 237.131 253.921 237.271 253.361 237.551C252.945 237.753 252.613 238 252.365 238.293C251.936 238.801 251.594 239.364 251.34 239.982C251.158 240.438 251.066 240.952 251.066 241.525V242.961C251.066 244.185 251.509 245.249 252.395 246.154C253.28 247.053 254.309 247.502 255.48 247.502C256.184 247.502 256.812 247.349 257.365 247.043C257.925 246.737 258.465 246.275 258.986 245.656C259.097 245.52 259.221 245.451 259.357 245.451C259.475 245.451 259.569 245.487 259.641 245.559C259.712 245.63 259.748 245.721 259.748 245.832C259.748 245.982 259.608 246.21 259.328 246.516C258.794 247.115 258.192 247.567 257.521 247.873C256.857 248.173 256.184 248.322 255.5 248.322C254.908 248.322 254.305 248.208 253.693 247.98C253.225 247.805 252.837 247.6 252.531 247.365C252.225 247.131 251.848 246.737 251.398 246.184C250.956 245.624 250.653 245.109 250.49 244.641C250.327 244.165 250.246 243.645 250.246 243.078V241.408C250.246 240.601 250.461 239.777 250.891 238.938C251.327 238.091 251.919 237.443 252.668 236.994C253.423 236.538 254.24 236.311 255.119 236.311C256.473 236.311 257.639 236.773 258.615 237.697Z" fill="black"/>
<path d="M215.046 361.608L213.167 365.913L218.949 368.437L219.918 366.217C219.996 366.038 220.084 365.924 220.184 365.875C220.289 365.829 220.399 365.831 220.512 365.88C220.626 365.93 220.698 366.008 220.73 366.114C220.768 366.223 220.747 366.367 220.669 366.546L219.372 369.517L211.076 365.895C210.897 365.817 210.784 365.726 210.738 365.62C210.691 365.515 210.692 365.408 210.738 365.301C210.788 365.187 210.866 365.115 210.972 365.083C211.081 365.045 211.225 365.066 211.404 365.144L212.415 365.585L216.33 356.617L215.318 356.176C215.139 356.097 215.025 356.009 214.976 355.909C214.93 355.804 214.932 355.694 214.981 355.581C215.031 355.468 215.108 355.395 215.215 355.363C215.323 355.325 215.467 355.346 215.646 355.424L223.549 358.873L222.42 361.46C222.342 361.639 222.25 361.752 222.145 361.798C222.045 361.847 221.939 361.847 221.826 361.797C221.712 361.748 221.637 361.668 221.599 361.56C221.567 361.453 221.59 361.311 221.669 361.132L222.469 359.297L217.081 356.945L215.374 360.856L218.068 362.032L218.439 361.182C218.517 361.003 218.609 360.89 218.715 360.844C218.82 360.798 218.93 360.799 219.043 360.849C219.15 360.896 219.223 360.974 219.261 361.082C219.298 361.191 219.278 361.335 219.2 361.514L218.13 363.966C218.051 364.145 217.96 364.258 217.854 364.304C217.749 364.351 217.642 364.35 217.535 364.304C217.422 364.254 217.346 364.175 217.308 364.066C217.271 363.957 217.291 363.813 217.369 363.634L217.74 362.784L215.046 361.608ZM233.227 363.993L233.337 363.742C233.415 363.563 233.504 363.449 233.603 363.4C233.709 363.354 233.818 363.356 233.932 363.405C234.045 363.455 234.117 363.533 234.149 363.639C234.187 363.748 234.167 363.891 234.089 364.07L233.253 365.986C233.174 366.165 233.083 366.277 232.977 366.324C232.878 366.373 232.771 366.372 232.658 366.323C232.551 366.276 232.477 366.201 232.436 366.098C232.402 365.998 232.417 365.866 232.481 365.702C232.67 365.188 232.607 364.624 232.293 364.011C231.984 363.4 231.436 362.923 230.648 362.579C229.819 362.217 229.065 362.144 228.389 362.36C227.714 362.57 227.251 362.965 226.998 363.544C226.868 363.842 226.818 364.143 226.849 364.448C226.879 364.752 226.974 365.032 227.133 365.286C227.295 365.534 227.498 365.768 227.742 365.989C227.99 366.203 228.396 366.494 228.96 366.861C229.907 367.474 230.537 367.951 230.85 368.293C231.267 368.753 231.517 369.245 231.6 369.772C231.689 370.301 231.611 370.846 231.366 371.406C230.991 372.266 230.328 372.85 229.376 373.159C228.427 373.462 227.37 373.36 226.207 372.852C224.9 372.281 224.034 371.417 223.609 370.258L223.422 370.688C223.344 370.867 223.252 370.979 223.146 371.026C223.047 371.075 222.94 371.074 222.827 371.025C222.72 370.978 222.647 370.9 222.609 370.791C222.572 370.683 222.592 370.539 222.67 370.36L223.576 368.283C223.657 368.098 223.747 367.981 223.847 367.932C223.952 367.886 224.062 367.888 224.175 367.937C224.282 367.984 224.353 368.058 224.388 368.158C224.428 368.261 224.416 368.394 224.352 368.558C224.142 369.12 224.215 369.748 224.572 370.444C224.938 371.136 225.592 371.688 226.535 372.1C227.478 372.511 228.323 372.6 229.072 372.366C229.827 372.134 230.345 371.696 230.626 371.051C230.798 370.658 230.846 370.263 230.77 369.867C230.696 369.466 230.493 369.086 230.159 368.727C229.928 368.477 229.392 368.076 228.553 367.525C227.397 366.772 226.638 366.061 226.277 365.392C225.916 364.722 225.908 363.991 226.254 363.197C226.598 362.41 227.207 361.869 228.081 361.576C228.961 361.285 229.917 361.365 230.949 361.816C231.999 362.274 232.759 363 233.227 363.993ZM244.733 369.345L244.963 368.817C245.041 368.638 245.13 368.524 245.23 368.475C245.335 368.429 245.444 368.43 245.558 368.48C245.671 368.529 245.744 368.607 245.775 368.714C245.813 368.822 245.793 368.966 245.715 369.145L244.805 371.231C244.724 371.416 244.631 371.531 244.525 371.578C244.426 371.626 244.319 371.626 244.206 371.577C244.105 371.532 244.034 371.459 243.993 371.356C243.959 371.256 243.971 371.123 244.029 370.956C244.218 370.442 244.141 369.879 243.797 369.267C243.337 368.434 242.665 367.825 241.782 367.439C241.203 367.187 240.601 367.077 239.976 367.109C239.513 367.127 239.11 367.221 238.766 367.391C238.169 367.684 237.631 368.064 237.151 368.529C236.801 368.874 236.512 369.309 236.283 369.834L235.708 371.149C235.219 372.271 235.199 373.424 235.648 374.607C236.1 375.785 236.863 376.608 237.937 377.077C238.582 377.358 239.219 377.469 239.848 377.41C240.484 377.354 241.164 377.146 241.889 376.788C242.045 376.707 242.186 376.694 242.311 376.748C242.418 376.795 242.49 376.866 242.527 376.96C242.564 377.055 242.561 377.152 242.517 377.254C242.457 377.391 242.237 377.544 241.858 377.712C241.129 378.048 240.396 378.221 239.659 378.234C238.931 378.242 238.254 378.11 237.627 377.837C237.084 377.6 236.578 377.254 236.108 376.801C235.749 376.452 235.476 376.109 235.289 375.772C235.102 375.435 234.914 374.923 234.724 374.236C234.542 373.546 234.47 372.953 234.508 372.458C234.549 371.958 234.683 371.448 234.91 370.929L235.578 369.398C235.901 368.658 236.427 367.989 237.157 367.392C237.895 366.79 238.697 366.434 239.563 366.322C240.438 366.206 241.278 366.324 242.083 366.676C243.324 367.217 244.207 368.107 244.733 369.345Z" fill="black"/>
<path d="M229.517 320.945L228.246 320.39L228.209 312.052L227.439 311.716C227.26 311.638 227.148 311.546 227.101 311.441C227.055 311.335 227.057 311.226 227.106 311.113C227.153 311.005 227.231 310.933 227.34 310.895C227.448 310.857 227.592 310.877 227.771 310.955L230.591 312.186C230.77 312.264 230.882 312.356 230.929 312.461C230.975 312.567 230.973 312.676 230.924 312.79C230.877 312.897 230.799 312.97 230.69 313.007C230.581 313.045 230.438 313.025 230.259 312.947L229.014 312.404L229.048 319.845L229.379 319.99L234.805 314.931L233.552 314.384C233.373 314.306 233.261 314.215 233.214 314.109C233.168 314.004 233.17 313.894 233.219 313.781C233.266 313.673 233.344 313.601 233.453 313.563C233.561 313.525 233.705 313.546 233.884 313.624L236.713 314.858C236.897 314.939 237.01 315.031 237.051 315.134C237.097 315.239 237.095 315.348 237.046 315.462C236.999 315.569 236.921 315.642 236.812 315.68C236.709 315.72 236.565 315.7 236.38 315.619L235.62 315.287L229.517 320.945ZM251.435 330.512L250.388 330.055L250.845 318.683L250.263 318.429C250.126 318.369 250.033 318.314 249.984 318.264C249.937 318.208 249.906 318.141 249.89 318.063C249.883 317.982 249.895 317.906 249.926 317.834C249.957 317.763 250.004 317.705 250.066 317.661C250.136 317.613 250.206 317.591 250.277 317.593C250.349 317.589 250.454 317.617 250.591 317.677L253.393 318.9C253.536 318.962 253.628 319.02 253.669 319.074C253.718 319.123 253.746 319.189 253.753 319.27C253.769 319.348 253.761 319.423 253.73 319.495C253.699 319.566 253.648 319.626 253.577 319.673C253.51 319.714 253.439 319.737 253.367 319.741C253.303 319.741 253.202 319.712 253.065 319.652L251.624 319.023L251.2 329.514L251.253 329.538L258.614 322.074L257.182 321.449C257.039 321.386 256.942 321.33 256.893 321.28C256.846 321.224 256.815 321.157 256.8 321.079C256.792 320.998 256.804 320.922 256.836 320.85C256.867 320.779 256.916 320.722 256.984 320.681C257.055 320.633 257.122 320.609 257.186 320.609C257.259 320.605 257.367 320.634 257.51 320.697L260.302 321.916C260.446 321.978 260.541 322.038 260.587 322.093C260.636 322.143 260.665 322.209 260.672 322.29C260.687 322.368 260.68 322.443 260.648 322.514C260.617 322.586 260.566 322.646 260.496 322.693C260.428 322.734 260.358 322.757 260.285 322.761C260.221 322.761 260.117 322.73 259.974 322.668L259.401 322.418L251.435 330.512Z" fill="black"/>
<path d="M189.842 184.334V186.453H188.631V184.334H189.842ZM189.871 188.543V196.18H193.094C193.296 196.18 193.439 196.219 193.523 196.297C193.608 196.368 193.65 196.466 193.65 196.59C193.65 196.707 193.608 196.805 193.523 196.883C193.439 196.961 193.296 197 193.094 197H185.828C185.633 197 185.493 196.961 185.408 196.883C185.324 196.805 185.281 196.707 185.281 196.59C185.281 196.466 185.324 196.368 185.408 196.297C185.493 196.219 185.633 196.18 185.828 196.18H189.051V189.373H186.658C186.463 189.373 186.32 189.334 186.229 189.256C186.144 189.178 186.102 189.08 186.102 188.963C186.102 188.839 186.144 188.738 186.229 188.66C186.313 188.582 186.456 188.543 186.658 188.543H189.871ZM213.875 186.395V196.18H216.688C216.883 196.18 217.023 196.219 217.107 196.297C217.192 196.368 217.234 196.466 217.234 196.59C217.234 196.707 217.192 196.805 217.107 196.883C217.023 196.961 216.883 197 216.688 197H210.242C210.047 197 209.907 196.961 209.822 196.883C209.738 196.805 209.695 196.707 209.695 196.59C209.695 196.466 209.738 196.368 209.822 196.297C209.907 196.219 210.047 196.18 210.242 196.18H213.055V186.395H210.242C210.047 186.395 209.907 186.359 209.822 186.287C209.738 186.209 209.695 186.108 209.695 185.984C209.695 185.861 209.738 185.763 209.822 185.691C209.907 185.613 210.047 185.574 210.242 185.574H216.688C216.883 185.574 217.023 185.613 217.107 185.691C217.192 185.763 217.234 185.861 217.234 185.984C217.234 186.108 217.192 186.209 217.107 186.287C217.023 186.359 216.883 186.395 216.688 186.395H213.875ZM239.842 197V195.818C238.65 196.821 237.378 197.322 236.023 197.322C235.04 197.322 234.272 197.075 233.719 196.58C233.165 196.079 232.889 195.467 232.889 194.744C232.889 193.95 233.253 193.257 233.982 192.664C234.712 192.072 235.776 191.775 237.176 191.775C237.553 191.775 237.964 191.801 238.406 191.854C238.849 191.899 239.327 191.974 239.842 192.078V190.75C239.842 190.301 239.633 189.91 239.217 189.578C238.8 189.246 238.175 189.08 237.342 189.08C236.704 189.08 235.809 189.266 234.656 189.637C234.448 189.702 234.314 189.734 234.256 189.734C234.152 189.734 234.061 189.695 233.982 189.617C233.911 189.539 233.875 189.441 233.875 189.324C233.875 189.214 233.908 189.126 233.973 189.061C234.064 188.963 234.432 188.829 235.076 188.66C236.092 188.387 236.86 188.25 237.381 188.25C238.416 188.25 239.223 188.507 239.803 189.021C240.382 189.529 240.672 190.105 240.672 190.75V196.18H241.766C241.967 196.18 242.111 196.219 242.195 196.297C242.28 196.368 242.322 196.466 242.322 196.59C242.322 196.707 242.28 196.805 242.195 196.883C242.111 196.961 241.967 197 241.766 197H239.842ZM239.842 192.918C239.458 192.807 239.051 192.726 238.621 192.674C238.191 192.622 237.739 192.596 237.264 192.596C236.072 192.596 235.141 192.853 234.471 193.367C233.963 193.751 233.709 194.21 233.709 194.744C233.709 195.239 233.901 195.656 234.285 195.994C234.676 196.333 235.242 196.502 235.984 196.502C236.694 196.502 237.352 196.362 237.957 196.082C238.569 195.796 239.197 195.343 239.842 194.725V192.918ZM264.207 193.182H258.816L257.713 196.18H259.285C259.48 196.18 259.62 196.219 259.705 196.297C259.79 196.368 259.832 196.466 259.832 196.59C259.832 196.707 259.79 196.805 259.705 196.883C259.62 196.961 259.48 197 259.285 197H256.219C256.023 197 255.883 196.961 255.799 196.883C255.714 196.805 255.672 196.707 255.672 196.59C255.672 196.466 255.714 196.368 255.799 196.297C255.883 196.219 256.023 196.18 256.219 196.18H256.854L260.477 186.395H258.055C257.859 186.395 257.719 186.359 257.635 186.287C257.55 186.209 257.508 186.108 257.508 185.984C257.508 185.861 257.55 185.763 257.635 185.691C257.719 185.613 257.859 185.574 258.055 185.574H262.186L266.189 196.18H266.824C267.02 196.18 267.16 196.219 267.244 196.297C267.329 196.368 267.371 196.466 267.371 196.59C267.371 196.707 267.329 196.805 267.244 196.883C267.16 196.961 267.02 197 266.824 197H263.768C263.566 197 263.423 196.961 263.338 196.883C263.253 196.805 263.211 196.707 263.211 196.59C263.211 196.466 263.253 196.368 263.338 196.297C263.423 196.219 263.566 196.18 263.768 196.18H265.33L264.207 193.182ZM263.895 192.361L261.629 186.395H261.326L259.129 192.361H263.895ZM290.115 192.791C290.115 194.041 289.666 195.109 288.768 195.994C287.876 196.88 286.798 197.322 285.535 197.322C284.259 197.322 283.175 196.88 282.283 195.994C281.391 195.102 280.945 194.035 280.945 192.791C280.945 191.541 281.391 190.473 282.283 189.588C283.175 188.696 284.259 188.25 285.535 188.25C286.798 188.25 287.876 188.693 288.768 189.578C289.666 190.464 290.115 191.535 290.115 192.791ZM289.285 192.791C289.285 191.762 288.917 190.887 288.182 190.164C287.452 189.441 286.567 189.08 285.525 189.08C284.484 189.08 283.595 189.445 282.859 190.174C282.13 190.896 281.766 191.769 281.766 192.791C281.766 193.807 282.13 194.679 282.859 195.408C283.595 196.137 284.484 196.502 285.525 196.502C286.567 196.502 287.452 196.141 288.182 195.418C288.917 194.689 289.285 193.813 289.285 192.791ZM314.568 191.316C314.568 192.41 314.347 193.426 313.904 194.363C313.462 195.294 312.85 196.02 312.068 196.541C311.294 197.062 310.46 197.322 309.568 197.322C308.247 197.322 307.081 196.762 306.072 195.643C305.07 194.516 304.568 193.074 304.568 191.316C304.568 189.552 305.07 188.11 306.072 186.99C307.081 185.87 308.247 185.311 309.568 185.311C310.46 185.311 311.294 185.571 312.068 186.092C312.843 186.613 313.452 187.339 313.895 188.27C314.344 189.201 314.568 190.216 314.568 191.316ZM313.738 191.316C313.738 189.982 313.351 188.784 312.576 187.723C311.801 186.661 310.799 186.131 309.568 186.131C308.416 186.131 307.43 186.639 306.609 187.654C305.796 188.663 305.389 189.884 305.389 191.316C305.389 192.84 305.815 194.087 306.668 195.057C307.527 196.02 308.494 196.502 309.568 196.502C310.799 196.502 311.801 195.975 312.576 194.92C313.351 193.859 313.738 192.658 313.738 191.316Z" fill="black"/>
</svg>

